<?xml version="1.0" standalone="no"?>
<!DOCTYPE svg PUBLIC "-//W3C//DTD SVG 20010904//EN"
 "http://www.w3.org/TR/2001/REC-SVG-20010904/DTD/svg10.dtd">
<svg version="1.0" xmlns="http://www.w3.org/2000/svg"
 width="360.000000pt" height="360.000000pt" viewBox="0 0 360.000000 360.000000"
 preserveAspectRatio="xMidYMid meet">

<g transform="translate(0.000000,360.000000) scale(0.100000,-0.100000)"
fill="#000000" stroke="none">
<path d="M1780 2767 c-4 -4 -95 -14 -155 -17 -5 -1 7 -7 28 -14 41 -15 339
-20 302 -5 -18 7 -18 8 -2 8 10 1 31 -9 48 -21 25 -19 31 -20 39 -8 7 11 0 17
-33 27 -23 7 -53 11 -65 8 -13 -3 -21 -2 -18 3 2 4 -12 9 -32 10 -20 1 -53 5
-72 8 -20 3 -38 3 -40 1z m-74 -35 c-10 -2 -22 0 -28 6 -6 6 0 7 19 4 21 -5
23 -7 9 -10z m132 7 c-22 -5 -54 -5 -75 0 -33 8 -28 9 37 9 65 0 70 -1 38 -9z
m75 -6 c-7 -2 -19 -2 -25 0 -7 3 -2 5 12 5 14 0 19 -2 13 -5z"/>
<path d="M1573 2731 c-16 -4 -20 -10 -14 -19 7 -12 13 -12 36 0 31 17 16 29
-22 19z"/>
<path d="M1459 2681 c-69 -36 -159 -100 -159 -113 0 -5 6 -8 13 -5 6 2 11 10
9 17 -1 6 3 10 10 7 7 -2 12 -10 10 -16 -1 -8 4 -8 20 0 65 34 77 37 58 14 -7
-8 -22 -15 -34 -16 -11 0 -15 -3 -8 -6 7 -3 24 -2 38 1 22 6 24 10 20 52 -6
54 6 62 57 40 31 -13 36 -13 41 1 9 23 8 24 -31 19 -37 -5 -37 -5 -10 6 15 7
27 15 27 20 0 11 1 11 -61 -21z m-37 -38 c-6 -2 -10 -9 -7 -13 6 -9 -36 -43
-43 -35 -7 6 41 55 53 54 6 0 4 -3 -3 -6z m-62 -49 c0 -8 -5 -12 -10 -9 -6 4
-8 11 -5 16 9 14 15 11 15 -7z"/>
<path d="M2080 2702 c0 -5 12 -13 28 -20 26 -11 25 -11 -12 -6 -33 5 -38 3
-32 -11 3 -9 6 -18 6 -20 0 -2 16 3 36 11 51 21 63 14 59 -38 -2 -41 6 -58 30
-58 6 1 2 5 -7 11 -10 5 -18 15 -18 21 0 9 3 9 12 0 7 -7 21 -12 33 -12 12 0
27 -6 34 -12 10 -11 12 -10 9 1 -2 7 3 16 10 18 7 3 11 -1 10 -7 -2 -7 3 -15
10 -17 29 -11 8 18 -36 50 -80 57 -172 105 -172 89z m127 -70 c10 -11 26 -22
36 -25 10 -4 15 -12 11 -18 -3 -6 -9 -7 -13 -3 -3 5 -13 10 -21 12 -21 5 -41
23 -35 32 3 5 -1 11 -7 13 -10 4 -10 6 -1 6 7 1 20 -7 30 -17z"/>
<path d="M1580 2649 c0 -5 5 -7 10 -4 6 3 10 8 10 11 0 2 -4 4 -10 4 -5 0 -10
-5 -10 -11z"/>
<path d="M2005 2650 c3 -5 8 -10 11 -10 2 0 4 5 4 10 0 6 -5 10 -11 10 -5 0
-7 -4 -4 -10z"/>
<path d="M1458 2643 c7 -3 16 -2 19 1 4 3 -2 6 -13 5 -11 0 -14 -3 -6 -6z"/>
<path d="M2128 2643 c7 -3 16 -2 19 1 4 3 -2 6 -13 5 -11 0 -14 -3 -6 -6z"/>
<path d="M1245 2520 c-10 -11 -18 -30 -19 -42 -1 -13 -7 -23 -16 -23 -25 0
-51 -45 -39 -67 6 -11 8 -24 6 -31 -3 -7 -9 -1 -14 13 -9 23 -12 21 -41 -40
-42 -89 -57 -153 -42 -177 10 -15 10 -13 6 15 -3 19 -1 32 5 32 6 0 8 9 4 20
-4 11 -2 20 4 20 6 0 11 -8 12 -17 0 -12 2 -13 6 -5 3 7 0 19 -7 27 -8 9 -8
19 -1 32 5 10 12 26 15 36 4 11 11 15 18 11 8 -5 9 -2 5 9 -8 22 2 22 19 0 11
-15 13 -15 14 -3 0 12 2 13 9 1 5 -8 8 1 7 27 0 22 -4 38 -8 36 -3 -2 -10 1
-14 7 -4 8 -3 9 4 5 8 -4 10 -2 6 7 -3 8 -1 18 5 22 7 3 8 0 5 -9 -4 -10 -1
-16 9 -16 8 0 28 -3 45 -6 l30 -6 -2 66 c-1 36 -4 68 -7 71 -3 3 -14 -4 -24
-15z m15 -19 c-6 -12 -15 -21 -21 -21 -5 0 -2 11 8 24 21 28 29 27 13 -3z"/>
<path d="M2325 2531 c-3 -7 -1 -10 6 -9 6 2 14 -3 17 -11 3 -9 0 -11 -7 -7 -6
4 -11 4 -10 -1 1 -4 1 -10 0 -13 -1 -3 -4 -25 -7 -49 l-4 -44 31 7 c17 3 38 6
46 6 10 0 13 6 9 16 -3 8 -2 12 3 9 6 -3 9 -14 8 -25 -1 -10 -4 -17 -7 -15 -3
2 -6 -15 -6 -38 l-2 -42 18 45 c15 40 15 48 2 71 -8 15 -22 26 -31 25 -11 -1
-15 6 -14 20 3 25 -41 71 -52 55z m40 -41 c3 -5 -1 -10 -10 -10 -9 0 -13 5
-10 10 3 6 8 10 10 10 2 0 7 -4 10 -10z"/>
<path d="M2438 2374 c-3 -11 -9 -28 -13 -39 -6 -19 -6 -19 8 -2 18 22 28 22
20 0 -4 -11 -3 -14 5 -9 7 4 14 0 18 -11 3 -10 10 -26 15 -36 7 -13 7 -23 -1
-32 -7 -8 -10 -20 -7 -27 4 -8 6 -7 6 5 1 9 6 17 12 17 6 0 8 -9 4 -20 -4 -12
-2 -20 5 -20 12 0 3 -45 -16 -75 -14 -23 -7 -125 8 -125 6 0 7 16 3 40 -4 26
-3 40 4 40 6 0 11 -10 12 -22 1 -14 5 -7 10 17 5 22 8 46 5 55 -2 9 -4 6 -5
-7 -1 -24 -21 -43 -21 -20 0 8 5 28 11 46 9 26 7 44 -11 100 -12 38 -32 85
-44 106 -19 31 -24 34 -28 19z"/>
<path d="M1106 2184 c-3 -9 -2 -23 2 -31 7 -11 9 -6 10 16 1 34 -3 39 -12 15z"/>
<path d="M2482 2172 c1 -26 3 -30 10 -18 5 10 5 23 -1 34 -8 14 -10 10 -9 -16z"/>
<path d="M1062 2120 c0 -14 2 -19 5 -12 2 6 2 18 0 25 -3 6 -5 1 -5 -13z"/>
<path d="M1093 2065 c0 -36 4 -65 9 -65 7 0 10 21 12 102 1 12 -4 23 -10 25
-8 3 -11 -17 -11 -62z"/>
<path d="M1072 2065 c0 -16 2 -22 5 -12 2 9 2 23 0 30 -3 6 -5 -1 -5 -18z"/>
<path d="M1057 1995 c2 -33 4 -73 4 -90 1 -29 1 -29 9 -5 12 36 12 99 0 80 -6
-10 -10 -2 -13 30 -2 25 -2 18 0 -15z"/>
<path d="M2542 2020 c-2 -33 -5 -41 -12 -30 -13 19 -12 -54 1 -90 8 -23 8 -23
5 5 -2 16 0 38 5 48 6 10 8 39 6 65 l-3 47 -2 -45z"/>
<path d="M2497 1973 c-3 -4 -8 -30 -11 -58 l-6 -50 15 54 c14 49 15 75 2 54z"/>
<path d="M1096 1960 c-18 -47 -25 -109 -15 -143 5 -20 12 -37 16 -37 3 0 2 12
-2 28 -4 15 -7 41 -5 57 1 17 2 36 3 43 0 6 6 12 14 12 15 0 15 6 3 35 -6 16
-9 17 -14 5z"/>
<path d="M1108 1888 c-5 -57 -2 -138 4 -138 4 0 5 -6 2 -13 -2 -7 4 -24 16
-37 16 -19 20 -20 20 -6 0 9 -7 19 -15 22 -24 10 -17 22 10 16 15 -2 25 -11
25 -21 0 -9 6 -23 13 -30 6 -7 8 -12 2 -11 -5 2 -18 2 -27 1 -15 -1 -16 -5 -6
-27 11 -24 13 -25 26 -7 12 16 13 15 6 -12 -4 -17 -3 -27 2 -22 5 5 9 37 9 72
0 46 -3 61 -12 58 -7 -3 -13 0 -13 5 0 6 8 13 18 15 9 3 -1 3 -24 0 l-41 -5
-7 49 c-3 27 -3 64 0 81 4 18 4 32 0 32 -3 0 -7 -10 -8 -22z m64 -240 c-7 -7
-12 -8 -12 -2 0 14 12 26 19 19 2 -3 -1 -11 -7 -17z"/>
<path d="M2512 1875 c0 -22 -3 -52 -7 -67 -4 -16 -5 -28 -1 -28 13 0 25 77 16
105 -9 29 -9 29 -8 -10z"/>
<path d="M2486 1815 c-4 -25 -4 -50 0 -57 5 -8 -6 -10 -42 -6 -27 3 -41 4 -31
1 9 -2 17 -9 17 -15 0 -5 -6 -8 -13 -5 -10 4 -13 -11 -12 -59 1 -35 5 -67 8
-71 4 -3 7 1 7 11 0 9 4 15 9 12 9 -6 36 43 32 62 -1 6 3 12 8 12 14 0 21 28
26 99 6 72 0 80 -9 16z m-19 -96 c-9 -6 -17 -19 -17 -31 0 -15 -4 -18 -17 -13
-15 5 -16 4 -5 -6 14 -15 16 -33 3 -25 -5 4 -11 0 -14 -6 -3 -7 -4 -1 -3 15 2
15 6 30 9 34 4 3 7 14 7 24 0 11 9 19 23 21 29 5 36 -1 14 -13z"/>
<path d="M1197 1594 c-9 -16 77 -109 103 -111 13 -1 26 -7 30 -14 4 -6 13 -8
19 -5 18 11 13 26 -6 19 -15 -6 -16 -4 -5 9 10 13 10 17 -4 22 -23 9 -31 7
-14 -4 8 -5 11 -12 7 -16 -3 -4 -13 -1 -21 5 -8 7 -19 10 -25 7 -5 -4 -20 8
-32 26 -13 18 -26 35 -30 38 -3 3 -8 12 -11 20 -2 8 -7 10 -11 4z"/>
<path d="M1220 1592 c1 -4 14 -23 30 -42 20 -22 30 -29 30 -18 0 8 -7 21 -15
28 -8 7 -15 17 -15 22 0 6 7 4 17 -3 14 -12 16 -12 11 1 -4 14 -58 26 -58 12z"/>
<path d="M2325 1592 c-12 -13 -4 -23 10 -12 20 17 20 -4 -1 -24 -10 -10 -13
-24 -9 -37 5 -15 4 -19 -4 -14 -7 4 -19 1 -27 -6 -8 -6 -18 -9 -21 -5 -4 4 -1
11 7 16 17 11 9 13 -14 4 -14 -5 -14 -9 -4 -22 11 -13 10 -15 -4 -9 -20 7 -25
-8 -7 -19 6 -3 15 -1 19 5 4 7 17 13 30 14 26 2 112 95 102 111 -4 7 -8 4 -10
-6 -2 -10 -8 -18 -14 -18 -5 0 -8 6 -5 14 4 9 -2 14 -18 14 -13 0 -27 -3 -30
-6z m45 -29 c-1 -15 -30 -46 -37 -40 -3 4 2 16 12 27 19 21 25 24 25 13z"/>
<path d="M1329 1440 c26 -22 38 -27 52 -20 24 13 39 12 16 -1 -19 -11 -15 -24
13 -39 13 -7 21 -7 26 2 4 7 4 10 -1 6 -10 -10 -37 11 -29 23 3 5 10 9 15 9 6
0 7 -4 4 -10 -3 -5 -2 -10 4 -10 5 0 9 8 8 18 -1 14 -9 18 -35 17 -18 0 -36 3
-38 7 -3 5 -9 6 -14 3 -4 -3 -13 2 -20 10 -7 8 -18 15 -24 15 -6 -1 4 -14 23
-30z"/>
<path d="M2270 1455 c-7 -8 -16 -13 -20 -10 -5 3 -11 2 -14 -3 -2 -4 -20 -7
-38 -7 -26 1 -34 -3 -35 -17 -1 -10 3 -18 8 -18 6 0 7 5 4 10 -3 6 -2 10 4 10
5 0 12 -4 15 -9 8 -12 -19 -33 -29 -23 -5 4 -5 1 -1 -6 5 -9 13 -9 26 -2 28
15 32 28 13 39 -23 13 -8 14 16 1 14 -7 26 -2 52 20 19 16 29 29 23 30 -6 0
-17 -7 -24 -15z"/>
<path d="M1478 1348 c37 -18 25 -33 -29 -35 -28 -2 -58 -8 -67 -14 -13 -8 -7
-9 25 -5 23 3 50 9 60 12 15 5 15 4 3 -5 -23 -16 -89 -24 -103 -13 -12 11 -78
-3 -142 -28 l-30 -12 44 -17 c33 -14 40 -19 27 -24 -24 -9 -28 -9 -21 3 7 11
-18 14 -28 3 -4 -3 -19 -8 -34 -9 -26 -3 -27 -2 -10 11 11 7 26 11 35 8 12 -4
11 -1 -3 10 -11 9 -21 12 -23 7 -2 -5 -10 -6 -19 -3 -11 4 -14 2 -9 -5 5 -8
-1 -12 -15 -12 -43 0 -231 -114 -312 -188 -20 -19 -24 -28 -15 -35 9 -5 6 -6
-7 -3 -15 4 -32 -6 -63 -38 -40 -42 -55 -65 -30 -50 7 4 8 3 4 -5 -4 -6 -11
-9 -15 -6 -9 5 -45 -33 -73 -76 -11 -18 -13 -30 -6 -40 7 -11 8 -9 3 6 -5 15
-3 17 5 9 9 -9 9 -17 1 -32 -14 -27 -14 -35 1 -26 7 5 8 3 3 -6 -6 -10 -11 -9
-22 5 -10 15 -13 16 -13 4 0 -9 -7 -16 -15 -16 -13 0 -13 3 1 18 9 10 21 16
25 13 5 -3 9 -1 9 5 0 27 -22 17 -49 -23 -33 -47 -38 -62 -20 -50 7 4 10 1 7
-7 -3 -8 -11 -13 -17 -12 -15 4 -14 -12 4 -50 14 -29 14 -30 0 -13 -8 11 -15
23 -15 28 0 4 -4 8 -8 8 -10 0 -49 -96 -87 -213 -27 -84 -30 -107 -15 -107 6
0 10 -4 10 -10 0 -5 -7 -10 -16 -10 -12 0 -15 -7 -12 -30 3 -16 1 -30 -4 -30
-4 0 -8 -54 -8 -120 l0 -120 1410 0 1410 0 0 120 0 120 -35 0 c-28 0 -35 4
-35 19 0 28 17 35 25 11 9 -29 35 -25 35 5 0 16 -6 25 -15 25 -8 0 -15 6 -15
13 0 6 -3 23 -7 36 -4 17 -3 22 5 17 7 -4 12 -17 13 -29 0 -12 3 -16 6 -9 9
23 -91 312 -108 312 -5 0 -9 -4 -9 -8 0 -5 -7 -17 -15 -28 -14 -16 -14 -14 0
14 18 37 15 52 -25 119 -25 42 -40 49 -48 23 -3 -7 0 -10 5 -7 6 4 18 -2 27
-12 14 -15 14 -18 1 -18 -8 0 -15 7 -15 16 -1 14 -2 13 -11 -1 -11 -20 -29
-24 -29 -7 0 5 5 7 11 3 7 -4 9 0 5 12 -3 11 -2 25 3 33 13 21 -15 62 -121
175 -26 28 -48 46 -48 40 0 -6 7 -17 15 -24 8 -7 15 -19 15 -26 0 -8 7 -14 15
-14 8 0 15 -5 15 -11 0 -17 -24 -4 -36 19 -6 12 -18 30 -26 39 -8 10 -18 26
-21 35 -14 40 -274 207 -298 192 -8 -4 -9 -3 -5 4 5 8 -2 12 -21 12 -23 0 -25
-2 -13 -11 12 -9 12 -10 -3 -5 -10 3 -24 6 -30 7 -7 0 -1 5 13 10 23 9 23 11
7 20 -12 7 -23 6 -39 -5 -12 -9 -17 -16 -10 -16 6 0 12 -5 12 -12 0 -9 -3 -9
-12 0 -16 16 -42 16 -32 0 5 -8 2 -9 -10 -5 -10 4 -21 7 -24 8 -4 0 13 8 38
18 l45 19 -40 17 c-22 9 -59 18 -82 19 -23 1 -47 7 -55 13 -12 10 -69 22 -110
23 -25 0 -22 19 5 30 21 8 21 9 -5 9 -19 1 -28 -4 -28 -14 0 -12 -17 -15 -87
-17 l-88 -2 75 -3 c41 -2 84 -8 95 -13 11 -5 27 -9 35 -8 8 1 24 0 35 -1 18
-2 18 -3 -4 -12 -17 -7 -32 -5 -54 6 -25 12 -80 15 -299 17 -245 1 -270 -1
-288 -17 -11 -10 -20 -14 -20 -8 0 19 46 33 120 36 l75 3 -87 2 c-71 2 -88 5
-88 17 0 10 -9 15 -27 14 -28 0 -28 -1 -5 -11z m739 -64 c-3 -3 -12 -4 -19 -1
-8 3 -5 6 6 6 11 1 17 -2 13 -5z m-947 -24 c-10 -6 -11 -10 -2 -10 6 0 12 -4
12 -9 0 -5 -9 -7 -20 -4 -23 6 -26 19 -7 26 21 9 33 7 17 -3z m1074 4 c22 -8
20 -21 -4 -27 -11 -3 -20 -1 -20 4 0 5 6 9 13 9 8 0 7 4 -3 10 -17 11 -10 13
14 4z m-1244 -78 c0 -11 -19 -15 -25 -6 -3 5 1 10 9 10 9 0 16 -2 16 -4z
m1430 0 c0 -11 -19 -15 -25 -6 -3 5 1 10 9 10 9 0 16 -2 16 -4z m-1450 -31
c29 -15 40 -35 19 -35 -5 0 -8 4 -5 9 6 9 -44 35 -52 26 -3 -3 2 -11 12 -18
16 -12 16 -13 -3 -13 -11 0 -17 4 -15 8 3 4 0 8 -5 8 -6 0 -11 -4 -11 -10 0
-5 -7 -10 -15 -10 -23 0 -18 13 13 32 15 9 28 17 30 17 2 1 16 -6 32 -14z
m1503 -4 c27 -14 36 -31 17 -31 -5 0 -10 5 -10 10 0 6 -7 10 -16 10 -8 0 -13
-4 -10 -8 2 -4 -4 -8 -15 -8 -19 0 -19 1 -3 13 10 7 15 15 12 18 -8 9 -58 -17
-52 -26 3 -5 0 -9 -5 -9 -21 0 -11 19 17 34 15 8 29 14 32 13 3 -2 17 -9 33
-16z m-1623 -36 c-6 -8 -9 -19 -6 -24 9 -14 -14 -25 -26 -13 -6 6 -2 17 13 31
26 24 37 28 19 6z m1714 -22 c3 -7 1 -15 -4 -18 -14 -8 -32 4 -24 16 3 5 0 17
-8 26 -12 15 -11 15 9 2 13 -7 25 -19 27 -26z m-1758 -28 c13 -12 9 -16 -26
-26 -22 -7 -40 -18 -40 -26 0 -7 -5 -13 -11 -13 -11 0 -4 15 19 43 9 10 24 15
36 12 12 -3 15 -2 9 1 -13 6 -18 24 -7 24 3 0 12 -7 20 -15z m1794 6 c0 -5 -6
-12 -12 -15 -7 -3 -4 -4 8 -1 12 3 27 -1 34 -10 8 -10 9 -15 1 -15 -6 0 -11 5
-11 11 0 5 -5 7 -10 4 -6 -3 -19 -3 -30 0 -16 5 -17 9 -7 20 14 16 27 19 27 6z
m68 -70 c3 -8 -1 -12 -9 -9 -7 2 -15 10 -17 17 -3 8 1 12 9 9 7 -2 15 -10 17
-17z m-1913 -21 c3 -5 -3 -10 -15 -10 -12 0 -18 5 -15 10 3 6 10 10 15 10 5 0
12 -4 15 -10z m1895 0 c0 -5 -7 -10 -16 -10 -8 0 -12 5 -9 10 3 6 10 10 16 10
5 0 9 -4 9 -10z m-1988 -32 c-18 -32 -42 -49 -42 -29 0 6 7 11 15 11 8 0 15 6
15 13 0 11 19 37 27 37 1 0 -5 -14 -15 -32z m36 8 c-7 -8 -15 -12 -17 -11 -5
6 10 25 20 25 5 0 4 -6 -3 -14z m-20 -48 c-2 -6 -10 -14 -16 -16 -7 -2 -10 2
-6 12 7 18 28 22 22 4z m2046 -4 c4 -10 1 -14 -6 -12 -15 5 -23 28 -10 28 5 0
13 -7 16 -16z m60 -3 c9 -13 -19 -21 -35 -9 -11 8 -10 9 4 4 9 -3 17 -1 17 4
0 12 7 13 14 1z m-2144 -5 c0 -2 -7 -7 -16 -10 -8 -3 -12 -2 -9 4 6 10 25 14
25 6z m-30 -40 c0 -7 -10 -22 -23 -34 -26 -24 -68 -27 -59 -3 4 10 7 11 10 3
5 -17 20 -15 44 7 12 12 18 26 14 36 -3 9 -2 13 4 10 6 -3 10 -12 10 -19z
m2195 13 c11 -16 1 -19 -13 -3 -7 8 -8 14 -3 14 5 0 13 -5 16 -11z m20 -67
c-6 -6 -55 38 -55 50 0 4 14 -4 30 -19 17 -14 28 -29 25 -31z m29 14 c11 -18
13 -27 4 -32 -6 -4 -8 -3 -5 3 4 5 -3 20 -14 31 -11 12 -16 22 -11 22 6 0 17
-11 26 -24z m90 -142 c3 -8 2 -12 -4 -9 -6 3 -10 10 -10 16 0 14 7 11 14 -7z
m-2509 -106 c5 -4 1 -6 -10 -6 -15 2 -20 10 -21 32 -1 31 -1 31 10 6 6 -14 15
-28 21 -32z m2541 24 c-1 -20 -6 -28 -21 -30 -11 0 -15 2 -9 6 6 4 14 17 18
30 10 30 13 28 12 -6z m-2609 -94 c-3 -8 -6 -5 -6 6 -1 11 2 17 5 13 3 -3 4
-12 1 -19z m2650 0 c-3 -8 -6 -5 -6 6 -1 11 2 17 5 13 3 -3 4 -12 1 -19z m23
-70 c0 -5 -4 -8 -10 -8 -5 0 -10 10 -10 23 0 18 2 19 10 7 5 -8 10 -18 10 -22z
m-2680 1 c0 -11 -4 -17 -10 -14 -5 3 -10 13 -10 21 0 8 5 14 10 14 6 0 10 -9
10 -21z m-10 -63 c0 -26 -6 -18 -14 19 -5 22 -4 26 4 15 5 -8 10 -24 10 -34z
m2710 24 c0 -5 -4 -10 -10 -10 -5 0 -10 -7 -10 -17 0 -9 -3 -14 -6 -10 -8 8 5
47 17 47 5 0 9 -4 9 -10z m-2739 -53 c-13 -13 -15 1 -4 30 7 17 8 17 11 -1 2
-10 -1 -23 -7 -29z m46 21 c-3 -8 -6 -5 -6 6 -1 11 2 17 5 13 3 -3 4 -12 1
-19z m-17 -88 c0 -5 -7 -10 -15 -10 -8 0 -15 5 -15 10 0 6 7 10 15 10 8 0 15
-4 15 -10z"/>
<path d="M1680 1350 c0 -6 47 -10 120 -10 73 0 120 4 120 10 0 6 -47 10 -120
10 -73 0 -120 -4 -120 -10z"/>
</g>
</svg>
